<svg viewBox="0 0 72 72" xmlns="http://www.w3.org/2000/svg">
    <path
        d="m20.7713 30.421-3.7092 4.0991c.6829-7.7072 5.6421-14.3554 12.9628-17.0134 2.1314-.774 4.3519-1.1663 6.5997-1.1663 5.4828 0 10.7603 2.375 14.4775 6.5161l.61.6795 3.8565-3.6084-.61-.6795c-4.7054-5.2418-11.3861-8.2481-18.3304-8.2481-2.8472 0-5.6591.4963-8.3556 1.4755-9.2075 3.3435-15.5605 11.8282-16.4322 21.5835l-3.2914-3.638-3.344 3.1165 9.4546 10.4502 9.4537-10.4493z"
        fill="#fff" />
    <path
        d="m67 38.3473-9.4546-10.4502-9.4537 10.4493 3.3421 3.1174 3.6932-4.0815c-.6491 7.749-5.6209 14.4422-12.9728 17.1119-2.1306.7731-4.3501 1.1654-6.5997 1.1654-5.4828 0-10.7603-2.375-14.4775-6.5157l-.61-.6795-3.8565 3.6079.61.6795c4.7045 5.2415 11.3861 8.2482 18.3304 8.2482 2.8481 0 5.6591-.4968 8.3556-1.475 9.2481-3.3574 15.6194-11.9025 16.4463-21.7122l3.3032 3.6511z"
        fill="#fff" />
    <g style="fill:none;stroke:#000;stroke-linecap:round;stroke-linejoin:round;stroke-miterlimit:20;stroke-width:0">
        <path
            d="m20.7713 30.421-3.7092 4.0991c.6829-7.7072 5.6421-14.3554 12.9628-17.0134 2.1314-.774 4.3519-1.1663 6.5997-1.1663 5.4828 0 10.7603 2.375 14.4775 6.5161l.61.6795 3.8565-3.6084-.61-.6795c-4.7054-5.2418-11.3861-8.2481-18.3304-8.2481-2.8472 0-5.6591.4963-8.3556 1.4755-9.2075 3.3435-15.5605 11.8282-16.4322 21.5835l-3.2914-3.638-3.344 3.1165 9.4546 10.4502 9.4537-10.4493z" />
        <path
            d="m67 38.3473-9.4546-10.4502-9.4537 10.4493 3.3421 3.1174 3.6932-4.0815c-.6491 7.749-5.6209 14.4422-12.9728 17.1119-2.1306.7731-4.3501 1.1654-6.5997 1.1654-5.4828 0-10.7603-2.375-14.4775-6.5157l-.61-.6795-3.8565 3.6079.61.6795c4.7045 5.2415 11.3861 8.2482 18.3304 8.2482 2.8481 0 5.6591-.4968 8.3556-1.475 9.2481-3.3574 15.6194-11.9025 16.4463-21.7122l3.3032 3.6511z" />
    </g>
</svg>